<svg xmlns="http://www.w3.org/2000/svg" xmlns:xlink="http://www.w3.org/1999/xlink" fill="none" version="1.1" width="31" height="25" viewBox="0 0 31 25"><g><path d="M0,23L0,2C0,0.89543,0.89543,0,2,0L29,0C30.1046,0,31,0.89543,31,2L31,23C31,24.1046,30.1046,25,29,25L2,25C0.89543,25,0,24.1046,0,23ZM10.001,2L2,2L2,7L10.001,7L10.001,2ZM2,9L2,23L29,23L29,9L2,9ZM29,7L29,2L22.001,2L22.001,7L29,7ZM20.001,2L12.001,2L12.001,7L20.001,7L20.001,2Z" fill-rule="evenodd" fill="#405FEA" fill-opacity="1"/></g></svg>