<svg xmlns:xlink="http://www.w3.org/1999/xlink" width="29" height="28" viewBox="0 0 29 28" fill="none" xmlns="http://www.w3.org/2000/svg" class="icon-layout arco-icon" style="font-size: 28px;"><path class="active" d="M18.6348 5.29395L24.2226 5.29395C24.5098 5.29395 24.7426 5.52676 24.7426 5.81395L24.7426 22.1856C24.7426 22.4728 24.5098 22.7056 24.2226 22.7056L18.6348 22.7056L18.6348 5.29395Z" fill="#000000" stroke-opacity="0" stroke="#000000" fill-opacity="0"></path><path class="active" d="M11.5078 5.29395L17.6156 5.29395L17.6156 22.7056L11.5078 22.7056L11.5078 5.29395Z" fill="#000000" stroke-opacity="0" stroke="#000000" fill-opacity="0"></path><path class="active" d="M4.38281 5.81395C4.38281 5.52676 4.61562 5.29395 4.90281 5.29395L10.4906 5.29395L10.4906 22.7056L4.90281 22.7056C4.61562 22.7056 4.38281 22.4728 4.38281 22.1856L4.38281 5.81395Z" fill="#000000" stroke-opacity="0" stroke="#000000" fill-opacity="0"></path><path class="normal" fill-rule="evenodd" clip-rule="evenodd" d="M5.38281 6.29297V21.707H10.4941L10.4941 6.29297H5.38281ZM17.6071 21.707H11.4941L11.4941 6.29297H17.6071L17.6071 21.707ZM18.6071 21.707H23.7422V6.29297H18.6071L18.6071 21.707ZM4.90281 5.29297C4.61562 5.29297 4.38281 5.52578 4.38281 5.81297V22.187C4.38281 22.4742 4.61562 22.707 4.90281 22.707H24.2222C24.5094 22.707 24.7422 22.4742 24.7422 22.187V5.81297C24.7422 5.52578 24.5094 5.29297 24.2222 5.29297H4.90281Z" fill="#FFFFFF" fill-opacity="0.9" stroke-opacity="0" stroke="#000000"></path></svg>