<svg xmlns:xlink="http://www.w3.org/1999/xlink" width="28" height="29" viewBox="0 0 28 29" fill="none" xmlns="http://www.w3.org/2000/svg" class="icon-layout arco-icon" style="font-size: 28px;"><path class="active" d="M23.5933 5.32031C23.8805 5.32031 24.1133 5.55312 24.1133 5.84031L24.1133 22.1597C24.1133 22.4469 23.8805 22.6797 23.5933 22.6797L10.7072 22.6797L10.7072 5.32031L23.5933 5.32031Z" stroke-opacity="0" stroke="#000000" fill="#4495FF"></path><path class="active" d="M3.8418 10.5L3.8418 5.83999C3.8418 5.55281 4.07461 5.31999 4.3618 5.31999L9.72656 5.31999L9.72656 10.5L3.8418 10.5Z" stroke-opacity="0" stroke="#000000" fill="#4495FF"></path><path class="active" d="M9.72656 22.6797L4.36224 22.6797C4.07506 22.6797 3.84224 22.4469 3.84224 22.1597L3.84224 17.5038L9.72656 17.5038L9.72656 22.6797Z" stroke-opacity="0" stroke="#000000" fill="#4495FF"></path><path class="active" d="M3.8418 16.5234L3.8418 11.4795L9.72656 11.4795L9.72656 16.5234L3.8418 16.5234Z" stroke-opacity="0" stroke="#000000" fill="#4495FF"></path><path class="normal" fill-rule="evenodd" clip-rule="evenodd" d="M23.1133 6.71094L23.1133 22.125L10.6113 22.125L10.6113 6.71094L23.1133 6.71094ZM9.61133 5.71094L10.6113 5.71094L23.5933 5.71094C23.8805 5.71094 24.1133 5.94375 24.1133 6.23094L24.1133 22.605C24.1133 22.8922 23.8805 23.125 23.5933 23.125L4.27391 23.125C3.98672 23.125 3.75391 22.8922 3.75391 22.605L3.75391 17.9102L3.74654 17.9102L3.74654 16.9102L3.75391 16.9102L3.75391 11.8867L3.74654 11.8867L3.74654 10.8867L3.75391 10.8867L3.75391 6.23094C3.75391 5.94375 3.98672 5.71094 4.27391 5.71094L9.61133 5.71094ZM4.75391 11.8867L4.75391 16.9102L9.61133 16.9102L9.61133 11.8867L4.75391 11.8867ZM9.61133 10.8867L4.75391 10.8867L4.75391 6.71094L9.61133 6.71094L9.61133 10.8867ZM4.75391 22.125L4.75391 17.9102L9.61133 17.9102L9.61133 22.125L4.75391 22.125Z" stroke-opacity="0" stroke="#000000" fill-opacity="0" fill="#000000"></path></svg>