<svg xmlns:xlink="http://www.w3.org/1999/xlink" width="29" height="28" viewBox="0 0 29 28" xmlns="http://www.w3.org/2000/svg" class="icon-layout arco-icon" style="font-size: 28px;"><path class="active" fill-rule="evenodd" clip-rule="evenodd" d="M24.7422 17.3585L23.7422 16.3247V16.3334L19.21 11.6405C18.6398 11.0501 17.701 11.0276 17.1032 11.5901L12.4562 15.9624C12.2656 16.1418 11.9689 16.1438 11.7758 15.967L9.94376 14.2885C9.37777 13.77 8.51165 13.7625 7.9367 14.271L5.38281 16.53V16.5218L4.38281 17.4038V5.73094C4.38281 5.44375 4.61562 5.21094 4.90281 5.21094H24.2222C24.5094 5.21094 24.7422 5.44375 24.7422 5.73094V17.3585ZM4.38281 18.7371L5.38281 17.8552V17.8651L8.59923 15.0201C8.79089 14.8505 9.07959 14.8531 9.26826 15.0259L11.1003 16.7043C11.6794 17.2348 12.5696 17.2289 13.1415 16.6907L17.7884 12.3184C17.9877 12.1309 18.3006 12.1384 18.4907 12.3352L23.7422 17.7729V17.763L24.7422 18.7969V22.105C24.7422 22.3922 24.5094 22.625 24.2222 22.625H4.90281C4.61562 22.625 4.38281 22.3922 4.38281 22.105V18.7371ZM11.1132 10.5346C11.1132 11.2584 10.5265 11.8451 9.8027 11.8451C9.07892 11.8451 8.49219 11.2584 8.49219 10.5346C8.49219 9.81086 9.07892 9.22412 9.8027 9.22412C10.5265 9.22412 11.1132 9.81086 11.1132 10.5346Z" stroke-opacity="0" stroke="#000000" fill-opacity="0" fill="#000000"></path><path class="normal" fill-rule="evenodd" clip-rule="evenodd" d="M5.33789 6.21094V16.53L7.89177 14.271C8.46673 13.7625 9.33285 13.77 9.89884 14.2885L11.7309 15.967C11.9239 16.1438 12.2207 16.1418 12.4113 15.9624L17.0582 11.5901C17.656 11.0276 18.5949 11.0501 19.1651 11.6405L23.6973 16.3334V6.21094H5.33789ZM5.33789 21.625V17.8651L8.55431 15.0201C8.74596 14.8505 9.03467 14.8531 9.22333 15.0259L11.0554 16.7043C11.6345 17.2348 12.5246 17.2289 13.0966 16.6907L17.7435 12.3184C17.9428 12.1309 18.2557 12.1384 18.4458 12.3352L23.6973 17.7729V21.625H5.33789ZM4.85789 5.21094C4.5707 5.21094 4.33789 5.44375 4.33789 5.73094V22.105C4.33789 22.3922 4.5707 22.625 4.85789 22.625H24.1773C24.4645 22.625 24.6973 22.3922 24.6973 22.105V5.73094C24.6973 5.44375 24.4645 5.21094 24.1773 5.21094H4.85789ZM9.75778 11.8451C10.4816 11.8451 11.0683 11.2584 11.0683 10.5346C11.0683 9.81086 10.4816 9.22412 9.75778 9.22412C9.034 9.22412 8.44727 9.81086 8.44727 10.5346C8.44727 11.2584 9.034 11.8451 9.75778 11.8451Z" stroke-opacity="0" stroke="#000000" fill-opacity="0.9" fill="#FFFFFF"></path></svg>