<svg xmlns:xlink="http://www.w3.org/1999/xlink" width="28" height="29" viewBox="0 0 28 29" fill="none" xmlns="http://www.w3.org/2000/svg" class="icon-layout arco-icon" style="font-size: 28px;"><g clip-path="url(#clip0_204_83)" stroke-opacity="0" stroke="#000000"><path class="active" d="M4.3618 22.6797C4.07461 22.6797 3.8418 22.4469 3.8418 22.1597L3.8418 5.84031C3.8418 5.55313 4.07461 5.32031 4.3618 5.32031L17.2479 5.32031L17.2479 22.6797L4.3618 22.6797Z" stroke-opacity="0" stroke="#000000" fill="#4495FF"></path><path class="active" d="M24.1133 17.5L24.1133 22.16C24.1133 22.4472 23.8805 22.68 23.5933 22.68L18.2285 22.68L18.2285 17.5L24.1133 17.5Z" stroke-opacity="0" stroke="#000000" fill="#4495FF"></path><path class="active" d="M18.2285 5.32031H23.5928C23.88 5.32031 24.1128 5.55312 24.1128 5.84031V10.4962H18.2285V5.32031Z" stroke-opacity="0" stroke="#000000" fill="#4495FF"></path><path class="active" d="M24.1133 11.4766L24.1133 16.5205L18.2285 16.5205L18.2285 11.4766L24.1133 11.4766Z" stroke-opacity="0" stroke="#000000" fill="#4495FF"></path></g><path class="normal" fill-rule="evenodd" clip-rule="evenodd" d="M4.74609 22.125V6.71094H17.248L17.248 22.125H4.74609ZM18.248 23.125H17.248H4.26609C3.97891 23.125 3.74609 22.8922 3.74609 22.605V6.23094C3.74609 5.94375 3.97891 5.71094 4.26609 5.71094H23.5855C23.8727 5.71094 24.1055 5.94375 24.1055 6.23094V10.9258H24.1128V11.9258H24.1055V16.9492H24.1128V17.9492H24.1055V22.605C24.1055 22.8922 23.8727 23.125 23.5855 23.125H18.248ZM23.1055 16.9492V11.9258H18.248V16.9492H23.1055ZM18.248 17.9492H23.1055V22.125H18.248V17.9492ZM23.1055 6.71094V10.9258H18.248V6.71094H23.1055Z" stroke-opacity="0" stroke="#000000" fill-opacity="0" fill="#000000"></path><defs><clipPath id="clip0_204_83"><rect width="28" height="28" transform="translate(28 28) rotate(-180)"></rect></clipPath></defs></svg>